<svg width="1440" height="1252" viewBox="0 0 1440 1252" fill="none" xmlns="http://www.w3.org/2000/svg">
<mask id="mask0_11_8310" style="mask-type:alpha" maskUnits="userSpaceOnUse" x="-82" y="0" width="1604" height="1604">
<circle cx="720" cy="802" r="802" fill="url(#paint0_radial_11_8310)"/>
</mask>
<g mask="url(#mask0_11_8310)">
<line x1="2.62268e-08" y1="351.7" x2="1440" y2="351.7" stroke="#161A31" stroke-width="0.6"/>
<line x1="2.62268e-08" y1="464.2" x2="1440" y2="464.2" stroke="#161A31" stroke-width="0.6"/>
<line x1="2.62268e-08" y1="576.7" x2="1440" y2="576.7" stroke="#161A31" stroke-width="0.6"/>
<line x1="2.62268e-08" y1="689.2" x2="1440" y2="689.2" stroke="#161A31" stroke-width="0.6"/>
<line x1="2.62268e-08" y1="801.7" x2="1440" y2="801.7" stroke="#161A31" stroke-width="0.6"/>
<line x1="2.62268e-08" y1="914.2" x2="1440" y2="914.2" stroke="#161A31" stroke-width="0.6"/>
<line x1="2.62268e-08" y1="1026.7" x2="1440" y2="1026.7" stroke="#161A31" stroke-width="0.6"/>
<line x1="2.62268e-08" y1="1139.2" x2="1440" y2="1139.2" stroke="#161A31" stroke-width="0.6"/>
<line x1="2.62268e-08" y1="1251.7" x2="1440" y2="1251.7" stroke="#161A31" stroke-width="0.6"/>
<line x1="-0.3" y1="1252" x2="-0.299937" y2="-188" stroke="#161A31" stroke-width="0.6"/>
<line x1="110.469" y1="1252" x2="110.469" y2="-188" stroke="#161A31" stroke-width="0.6"/>
<line x1="221.238" y1="1252" x2="221.239" y2="-188" stroke="#161A31" stroke-width="0.6"/>
<line x1="332.008" y1="1252" x2="332.008" y2="-188" stroke="#161A31" stroke-width="0.6"/>
<line x1="442.777" y1="1252" x2="442.777" y2="-188" stroke="#161A31" stroke-width="0.6"/>
<line x1="553.546" y1="1252" x2="553.546" y2="-188" stroke="#161A31" stroke-width="0.6"/>
<line x1="664.315" y1="1252" x2="664.315" y2="-188" stroke="#161A31" stroke-width="0.6"/>
<line x1="775.085" y1="1252" x2="775.085" y2="-188" stroke="#161A31" stroke-width="0.6"/>
<line x1="885.854" y1="1252" x2="885.854" y2="-188" stroke="#161A31" stroke-width="0.6"/>
<line x1="996.623" y1="1252" x2="996.623" y2="-188" stroke="#161A31" stroke-width="0.6"/>
<line x1="1107.39" y1="1252" x2="1107.39" y2="-188" stroke="#161A31" stroke-width="0.6"/>
<line x1="1218.16" y1="1252" x2="1218.16" y2="-188" stroke="#161A31" stroke-width="0.6"/>
<line x1="1328.93" y1="1252" x2="1328.93" y2="-188" stroke="#161A31" stroke-width="0.6"/>
<line x1="1439.7" y1="1252" x2="1439.7" y2="-188" stroke="#161A31" stroke-width="0.6"/>
<path d="M110.5 452.5L110.5 476.5" stroke="url(#paint1_linear_11_8310)"/>
<path d="M122.5 464.5L98.5 464.5" stroke="url(#paint2_linear_11_8310)"/>
<g opacity="0.47">
<rect x="332.5" y="465.5" width="109" height="110" fill="#0C0F24"/>
<rect x="332.5" y="465.5" width="109" height="110" fill="#0C0F24"/>
<rect x="332.5" y="465.5" width="109" height="110" fill="#0C0F24"/>
<rect x="332.5" y="465.5" width="109" height="110" fill="#0C0F24"/>
<rect x="332.5" y="465.5" width="109" height="110" stroke="#0C0F24"/>
</g>
<g opacity="0.47">
<rect x="886.5" y="353.5" width="110" height="110" fill="#0C0F24"/>
<rect x="886.5" y="353.5" width="110" height="110" fill="#0C0F24"/>
<rect x="886.5" y="353.5" width="110" height="110" fill="#0C0F24"/>
<rect x="886.5" y="353.5" width="110" height="110" fill="#0C0F24"/>
<rect x="886.5" y="353.5" width="110" height="110" stroke="#0C0F24"/>
</g>
<g opacity="0.47">
<rect x="1218.5" y="577.5" width="110" height="111" fill="#0C0F24"/>
<rect x="1218.5" y="577.5" width="110" height="111" fill="#0C0F24"/>
<rect x="1218.5" y="577.5" width="110" height="111" fill="#0C0F24"/>
<rect x="1218.5" y="577.5" width="110" height="111" fill="#0C0F24"/>
<rect x="1218.5" y="577.5" width="110" height="111" stroke="#0C0F24"/>
</g>
<path d="M1218 453L1218 477" stroke="url(#paint3_linear_11_8310)"/>
<path d="M1230 465L1206 465" stroke="url(#paint4_linear_11_8310)"/>
</g>
<defs>
<radialGradient id="paint0_radial_11_8310" cx="0" cy="0" r="1" gradientUnits="userSpaceOnUse" gradientTransform="translate(720 646.5) rotate(90) scale(957.5)">
<stop stop-color="#D9D9D9"/>
<stop offset="1" stop-color="#D9D9D9" stop-opacity="0"/>
</radialGradient>
<linearGradient id="paint1_linear_11_8310" x1="110.5" y1="476.5" x2="110.5" y2="452.5" gradientUnits="userSpaceOnUse">
<stop stop-color="#C34124" stop-opacity="0"/>
<stop offset="0.50284" stop-color="#F99A85"/>
<stop offset="1" stop-color="#C34124" stop-opacity="0"/>
</linearGradient>
<linearGradient id="paint2_linear_11_8310" x1="98.5" y1="464.5" x2="122.5" y2="464.5" gradientUnits="userSpaceOnUse">
<stop stop-color="#C34124" stop-opacity="0"/>
<stop offset="0.50284" stop-color="#F99A85"/>
<stop offset="1" stop-color="#C34124" stop-opacity="0"/>
</linearGradient>
<linearGradient id="paint3_linear_11_8310" x1="1218" y1="477" x2="1218" y2="453" gradientUnits="userSpaceOnUse">
<stop stop-color="white" stop-opacity="0"/>
<stop offset="0.50284" stop-color="white"/>
<stop offset="1" stop-color="white" stop-opacity="0"/>
</linearGradient>
<linearGradient id="paint4_linear_11_8310" x1="1206" y1="465" x2="1230" y2="465" gradientUnits="userSpaceOnUse">
<stop stop-color="white" stop-opacity="0"/>
<stop offset="0.50284" stop-color="white"/>
<stop offset="1" stop-color="white" stop-opacity="0"/>
</linearGradient>
</defs>
</svg>
