<?xml version="1.0" encoding="UTF-8"?><svg id="Layer_2" xmlns="http://www.w3.org/2000/svg" viewBox="0 0 670.56 519.36"><defs><style>.cls-1{fill:#fff;}</style></defs><g id="Layer_1-2"><g><path class="cls-1" d="M119.52,0c5.08,1.07,10.15,2.14,15.23,3.2,15.36,3.22,28.51,10.47,39.91,21.23,16.89,15.93,26.62,35.52,30.42,58.23,1.46,8.76,2.19,17.59,2.49,26.48,.56,16.36-1.24,32.39-5.87,48.09-2.96,10.04-7.1,19.52-13.4,27.97-2.93,3.93-2.92,6.75,.05,10.7,4.96,6.58,9.35,13.56,14.19,20.23,3.87,5.34,3.26,8.91-1.97,12.92-4.01,3.08-7.46,6.76-11.17,10.16-1,.92-1.9,1.96-3.05,2.7-2.31,1.48-4.35,1.27-6.26-.7-.66-.69-1.23-1.47-1.76-2.27-4.68-7.16-9.69-14.1-14.22-21.37-2.21-3.55-4.61-4.34-8.61-2.81-4.55,1.75-9.08,3.57-13.73,5.04-8.95,2.82-18.06,4.75-27.43,5.53-24.36,2.01-46.12-4.85-65.83-18.93-13.34-9.53-22.69-22.14-28.88-37.2-4.59-11.16-7.27-22.84-9.13-34.71-1.33-8.46-2.03-16.99-1.86-25.56,.51-24.51,6.67-47.45,19.81-68.24C41.26,20.41,59.69,7.92,83.09,2.76c4.14-.91,8.31-1.62,12.54-2,1.1-.1,2.17-.5,3.26-.75,6.88,0,13.76,0,20.64,0Zm51.35,109.44c.12-6.04-.27-10.89-1.06-15.72-1.81-11.04-4.76-21.71-10.37-31.5-6.05-10.55-14.49-18.49-25.87-22.96-13.9-5.46-28.2-6.25-42.61-2.44-13.88,3.67-24.94,11.52-32.3,23.98-8.24,13.96-12.58,29.17-13.4,45.35-.5,9.87,.35,19.66,2.4,29.33,1.85,8.7,4.02,17.3,8.24,25.23,7.31,13.75,18.37,23,33.3,27.47,7.8,2.34,15.77,3.16,23.94,2.42,7.39-.67,14.54-2.16,21.43-4.88,3.94-1.55,4.35-3.19,1.75-6.41-.05-.06-.1-.12-.16-.18-5.58-6.7-11.17-13.39-16.75-20.09-1.89-2.28-3.84-4.51-5.57-6.91-1.74-2.41-1.57-4.21,.29-6.55,.55-.69,1.13-1.35,1.74-1.98,3.95-4.09,7.84-8.21,11.6-12.47,.69-.79,1.49-1.46,2.4-1.97,1.68-.94,3.35-.92,5,.09,.83,.51,1.5,1.19,2.11,1.93,6.83,8.36,14.19,16.28,20.86,24.78,.64,.82,1.33,1.61,2.21,2.18,1.07,.7,1.71,.62,2.46-.43,.46-.64,.81-1.39,1.07-2.13,.76-2.19,1.49-4.39,2.16-6.61,2.79-9.21,4.88-18.53,5.23-28.22,.15-4.17-.45-8.3-.11-11.31Z"/><path class="cls-1" d="M670.56,218.88c-.87,1.61-2.4,1.64-3.95,1.71-8.07,.36-16.14-.3-24.21-.09-3.76,.1-7.51,.15-11.27,.31-3.89,.16-7.01-1.23-9.43-4.28-5.48-6.89-10.99-13.75-16.46-20.63-17.63-22.16-35.25-44.33-52.87-66.49-.6-.75-1.2-1.5-1.84-2.21-2.1-2.34-3.55-2.45-5.95-.44-2.7,2.26-5.19,4.76-7.62,7.3-2.76,2.89-5.4,5.92-8.3,8.66-2.64,2.51-3.64,5.4-3.62,8.99,.1,16.72,.08,33.44,.04,50.16,0,4.47,.26,8.96-.3,13.42-.45,3.57-1.83,4.81-5.36,5.2-5.68,.63-11.34-.04-17.01,0-1.76,.01-3.52-.05-5.27,.24-.47,.08-.96,.08-1.44,.08-4.65,.03-6.64-1.87-6.7-6.48-.04-3.28,.01-6.56,.01-9.84,0-64,0-128,0-192,0-1.52-.1-3.04,.24-4.54,.46-2.03,1.33-2.88,3.38-3.17,.79-.11,1.6-.09,2.39-.09,7.44,0,14.88,.02,22.32,.03,1.2,0,2.39,.04,3.58,.3,2.44,.54,3.47,1.54,3.77,3.98,.27,2.14,.41,4.29,.41,6.46-.01,27.2-.01,54.4,0,81.6,0,1.01-.18,2.06,.21,3.01,.8,.25,1.1-.35,1.45-.72,7.04-7.43,14.09-14.86,21.09-22.33,4.98-5.31,9.9-10.67,14.83-16.02,12.63-13.71,25.24-27.42,37.86-41.14,3.57-3.88,7.15-7.77,10.7-11.68,2.19-2.41,4.97-3.45,8.13-3.48,4.24-.04,8.48,.04,12.72,.06,6.88,.02,13.76,.14,20.59-.92,.39-.06,.8-.08,1.2-.04,1.62,.16,2.94,.82,3.57,2.41,.6,1.52,.11,2.82-.97,3.94-1.77,1.85-3.53,3.71-5.31,5.55-8.02,8.27-16.05,16.52-24.07,24.8-9.35,9.65-18.71,19.3-28.01,28.99-7.92,8.25-15.78,16.56-23.66,24.85-2.38,2.51-2.48,4.28-.13,7.18,3.43,4.22,6.96,8.36,10.45,12.53,11.08,13.26,22.16,26.51,33.23,39.77,13.28,15.9,26.56,31.8,39.84,47.7,3.9,4.67,7.81,9.32,11.71,13.98v3.36Z"/><path class="cls-1" d="M260.16,519.36c-.6-.22-1.2-.44-1.79-.66-2.23-.81-2.87-1.87-2.39-4.24,.27-1.33,.66-2.64,1.11-3.92,4.93-13.86,9.86-27.72,14.84-41.56,6.73-18.73,13.49-37.46,20.26-56.17,9.03-24.96,18.09-49.91,27.12-74.86,3.4-9.4,6.74-18.81,10.13-28.22,.35-.97,.71-1.96,1.22-2.86,1.28-2.24,3.26-3.46,5.84-3.64,.72-.05,1.44-.05,2.16-.03,8.8,.24,17.59,.29,26.38-.03,4.27-.16,7.49,.77,9.57,6.55,4.36,12.11,8.68,24.23,13.04,36.34,8.81,24.44,17.66,48.87,26.46,73.32,6.99,19.4,13.93,38.83,20.92,58.23,3.87,10.76,7.81,21.49,11.7,32.24,.43,1.2,.85,2.43,1.09,3.67,.51,2.67-.15,3.94-2.54,5.32-.28,.16-.54,.34-.81,.51h-30.72c-3-1.11-4.35-3.57-5.27-6.4-.25-.76-.5-1.52-.75-2.28-.82-2.51-1.6-5.03-2.45-7.52-3.13-9.15-6.29-18.28-9.42-27.42-.8-2.34-1.54-4.71-2.35-7.05-.77-2.22-2.4-3.31-4.71-3.42-.88-.04-1.76-.03-2.64-.03-20.46,0-40.91,0-61.37,0-2.88,0-5.75,0-8.63-.01-2.61-.02-4.4,1.22-5.48,3.54-.3,.65-.58,1.32-.81,2-4.57,13.3-9.48,26.47-13.59,39.93-1.17,3.84-2.97,7.05-6.86,8.67h-29.28Zm91.7-86.05v.04c7.6,0,15.2,0,22.79,0,.96,0,1.93,.02,2.87-.13,1.84-.31,2.59-1.3,2.51-3.18-.06-1.55-.68-2.96-1.16-4.39-6.4-18.94-12.81-37.87-19.21-56.81-2.2-6.51-4.38-13.04-6.58-19.55-.15-.44-.22-1.03-.77-1.11-.69-.11-.96,.49-1.18,1-.26,.58-.43,1.2-.63,1.81-2.01,5.99-4,11.98-6.02,17.97-6.59,19.55-13.19,39.09-19.8,58.64-1.29,3.81-.76,5.84,4.15,5.76,7.68-.13,15.36-.03,23.03-.03Z"/><path class="cls-1" d="M0,303.84c6.33-.96,12.68-1.65,19.1-1.47,5.19,.15,10.38,.36,15.56,.82,2.14,.19,3.61,1.21,4.49,3.1,.54,1.16,.96,2.37,1.35,3.59,5.1,16,10.19,32,15.26,48.01,11.55,36.43,23.09,72.87,34.64,109.3,.43,1.35,.63,2.79,1.49,4.13,.88-.71,1.2-1.62,1.59-2.47,1.35-2.91,2.26-5.98,3.12-9.06,3.32-11.86,7.32-23.51,11.02-35.26,10.43-33.18,20.89-66.35,31.34-99.53,1.49-4.73,2.98-9.46,4.48-14.18,.19-.61,.39-1.22,.63-1.81,1.69-4.25,4.27-6,8.86-5.86,4.08,.13,8.16,.18,12.23,.08,4.55-.11,9.09-.66,13.66-.5,.88,.03,1.77,.03,2.62,.24,1.78,.43,2.49,1.42,2.57,3.26,.08,1.97-.61,3.78-1.21,5.59-5.69,17.07-11.39,34.13-17.1,51.2-6.39,19.11-12.77,38.22-19.16,57.33-9.81,29.35-19.62,58.7-29.43,88.05-.25,.76-.54,1.51-.74,2.28-1.02,4.14-3.13,7.33-7.41,8.68h-11.04c-3.68-.51-7.36-.51-11.04,0h-12c-.33-.22-.63-.52-.99-.66-2.42-.92-3.85-2.77-4.78-5.08-.39-.96-.72-1.95-1.05-2.93-4.7-14.1-9.38-28.21-14.1-42.3-11.94-35.69-23.88-71.39-35.87-107.06-5.55-16.51-11.22-32.98-16.84-49.47-.28-.82-.44-1.73-1.26-2.25v-5.76Z"/><path class="cls-1" d="M207.84,519.36c-.14-.07-.28-.16-.43-.21-3.79-1.27-4.39-2.06-4.49-6-.02-.88-.02-1.76-.02-2.64,0-66.61,0-133.22,0-199.83,0-1.44-.01-2.89,.21-4.3,.36-2.34,1.44-3.28,3.81-3.62,4.22-.62,8.46-.31,12.69-.35,3.2-.03,6.4,.01,9.59-.01,1.29,0,2.55,.13,3.82,.3,3.16,.42,5.03,2.18,5.77,5.26,.32,1.34,.36,2.69,.36,4.05-.03,9.44-.09,18.87-.09,28.31,0,55.81,.02,111.63,.03,167.44,0,2.16,0,4.31-.24,6.46-.27,2.55-1.43,4.17-3.99,4.71-.38,.08-.74,.29-1.1,.45h-25.92Z"/><path class="cls-1" d="M271.11,79.23c-.43,1.27-.27,2.23-.27,3.17,0,42.87,.03,85.75,.04,128.62,0,1.44,.03,2.89-.11,4.32-.34,3.47-2.31,5.34-5.77,5.56-.96,.06-1.93,.06-2.88-.03-6.55-.65-13.09-.48-19.64-.12-.95,.05-1.92-.07-2.86-.23-2.99-.53-4.41-2.17-4.57-5.24-.04-.8-.02-1.6-.03-2.4,0-65.75,0-131.5,0-197.25,0-1.76-.03-3.53,.16-5.27,.37-3.48,1.63-4.73,5.04-5.41,1.43-.28,2.87-.25,4.3-.25,7.04-.01,14.08-.02,21.12,0,1.68,0,3.34-.21,5.03-.05,3.42,.32,6.05,1.89,7.94,4.73,.85,1.27,1.46,2.65,2.03,4.07,8.52,21.14,17.02,42.29,25.59,63.4,11.97,29.49,24,58.96,36.01,88.43,.38,.94,.55,2.32,1.74,2.36,1.3,.04,1.29-1.45,1.66-2.34,11.2-27.04,22.22-54.15,33.15-81.31,9.52-23.67,19.05-47.33,28.58-70.99,.39-.96,.81-1.91,1.25-2.86,2.02-4.36,5.57-6.29,10.23-6.09,8.56,.36,17.11,.29,25.67,.27,1.36,0,2.71-.02,4.05,.3,2.26,.54,3.62,1.92,4.16,4.15,.28,1.17,.42,2.36,.43,3.57,0,1.68,.04,3.36,.04,5.04,0,64.31,0,128.62,0,192.93,0,1.92,.11,3.84-.22,5.75-.55,3.13-1.77,4.19-4.96,4.48-3.67,.33-7.33,.29-11.01,.1-3.98-.21-7.99-.32-11.98,.18-1.5,.19-3.02,.2-4.53-.13-2.39-.52-3.78-1.99-4.31-4.31-.39-1.72-.51-3.47-.51-5.24,.02-31.04,.04-62.07,.03-93.11,0-7.44-.04-14.88-.18-22.32-.07-3.81-.38-7.62-.6-11.7-.95,.63-1.07,1.45-1.35,2.13-8.84,21.96-17.69,43.92-26.48,65.89-8.02,20.05-15.98,40.12-23.96,60.18-.53,1.34-1.06,2.67-1.82,3.91-2.03,3.28-4.99,4.97-8.81,4.8-3.67-.17-7.33-.55-11.01-.43-1.6,.05-3.19,.04-4.79,.26-5.77,.79-9-1.09-11.25-6.64-2.98-7.33-5.86-14.71-8.79-22.06-9.45-23.69-18.9-47.39-28.38-71.08-5.2-12.99-10.44-25.97-15.66-38.96-.35-.88-.64-1.8-1.52-2.74Z"/></g></g></svg>