<?xml version="1.0" encoding="UTF-8"?><svg id="Layer_2" xmlns="http://www.w3.org/2000/svg" viewBox="0 0 528.39 595.22"><defs><style>.cls-1{fill:#fff;}</style></defs><g id="Layer_1-2"><g><path class="cls-1" d="M376.67,473.52c-19.14,0-38.27-.02-57.41,.01-7.75,.01-8.28,.69-8.38,8.24-.15,10.67-.48,21.33-.72,32-.06,2.69-.72,5.22-1.91,7.6-2.23,4.46-4.46,8.92-6.8,13.32-2.56,4.82-6.4,7.2-12.11,7.15-19.69-.17-39.38-.15-59.06-.01-5.81,.04-9.8-2.16-12.23-7.46-1.38-3.02-2.95-5.97-4.69-8.8-3.15-5.13-4.47-10.55-4.12-16.62,.56-9.54,.61-19.11,.9-28.67,.18-6-1.13-7.52-7.06-7.54-15.11-.06-30.23,.04-45.34-.07-26.75-.2-53.51-.49-80.26-.78-5.25-.06-9.18-3.45-10.16-8.63-4.09-21.65-8.52-43.24-11.38-65.11-2.19-16.72-.87-33.51-1.23-50.27-.02-1.11,.05-2.22,.01-3.33-.13-4.25-1.76-5.9-5.97-5.34-4.16,.55-8.3,.43-12.45,.5-13.4,.25-14.16-3.2-14.46-14.78-.21-8.53-.01-17.17,.3-25.76,.38-10.49,4.26-13.81,14.8-12.7,1.38,.14,2.76,.45,4.13,.41,3.65-.1,6.19-1.48,7.34-5.39,4.07-13.81,7.62-27.75,11.24-41.68,4.29-16.48,8.78-32.9,13.11-49.37,3-11.4,5.94-22.81,8.79-34.24,4.5-18.02,20.2-30.34,38.79-30.52,11.21-.11,22.4-1.32,33.62-.42,1.99,.16,3.39-.98,4.66-2.33,2.78-2.95,4.88-6.37,6.79-9.93,2.84-5.32,6.94-8.46,13.33-8.1,3.73,.21,7.49,0,11.23-.06,5.49-.08,6.96-1.51,6.97-6.91,.03-25.79,.05-51.59,.02-77.38,0-8.45,3.95-12.34,12.53-12.26,6.24,.06,12.48-.02,18.72-.05,3.8-.02,7.07-1.14,9.43-4.35,2.3-3.14,5.75-3.74,9.27-3.77,10.4-.11,20.8-.22,31.2-.05,4.8,.08,9.31,1.51,12.67,5.32,1.98,2.25,4.47,3.23,7.43,2.89,6.23-.72,12.45,.12,18.67,.12,7.66,0,10.78,3.4,10.79,11.09,.04,26.35,.03,52.69,.02,79.04,0,6.61,1.38,8.03,8.04,8.02,5.96,0,11.93,.14,17.88,0,4.5-.1,7.46,1.93,8.98,5.99,5.4,14.37,4.33,10.91,17.74,11.46,6.09,.25,12.17-.11,18.27,.62,10.1,1.21,18.59,5.69,25.6,12.64,5.35,5.3,8.37,12.35,11.37,19.21,1.51,3.45,3.13,6.8,5.41,9.8,1.03,1.35,1.78,2.83,2.03,4.5,2.02,13.35,8.64,25.03,13.61,37.31,.57,1.41,1.53,2.68,1.94,4.12,6.86,23.76,18,45.9,26.05,69.21,2.13,6.17,4.01,7.28,10.76,7.44,7.59,.18,11.66,3.96,11.85,11.51,.22,9.01,.28,18.03,.1,27.04-.17,8.27-4.24,12.04-12.49,12.12-4.44,.04-8.88-.04-13.31,.07-4.39,.11-5.71,1.43-5.82,5.79-.28,12.19-.86,24.39-.61,36.57,.16,8.1-1.45,15.7-4.07,23.18-6.95,19.89-14.09,39.71-21.05,59.6-1.73,4.95-4.73,7.85-10.11,8.49-3.75,.45-7.47,.32-11.21,.32-17.33,.02-34.67,0-52,0v-.07Zm-115.07-221.29v.03c-32.17,0-64.33,.05-96.5-.04-7.81-.02-8.98,.89-8.98,8.68,.01,56.71,.03,113.41,.04,170.12,0,5.82-.09,11.65,.04,17.47,.1,4.22,1.95,5.73,6.02,5.47,2.9-.18,5.81-.32,8.72-.32,61.54-.02,123.09,0,184.63-.03,11.27,0,11.13-.06,11.12-11.25-.05-61.01-.04-122.01-.02-183.01,0-5.95-1.03-7.1-6.92-7.1-32.72,0-65.44,0-98.16,0Zm124.25,46.23h-.05c0,8.04,0,16.08,0,24.12,0,41.58-.01,83.17,0,124.75,0,6.42,.87,7.13,7.22,7.1,11.5-.05,23.01-.13,34.51,.1,4.15,.08,6.53-1.6,7.82-5.32,2.03-5.89,4.03-11.8,6.12-17.67,3.48-9.77,7.19-19.46,10.51-29.28,2.29-6.79,4.71-13.52,4.54-20.98-.28-13.16,.08-26.33,.06-39.5,0-3.9,.29-7.73,1.06-11.56,1.37-6.77,4.31-9.44,11.3-9.68,4.71-.16,9.43-.02,14.14-.12,3.99-.08,5.8-2.11,5.51-6.07-.28-3.72-1.75-6.11-6.01-6.52-4.96-.47-8.53-2.81-10.56-7.97-2.82-7.17-5.93-14.23-8.68-21.44-5.68-14.88-11.49-29.71-17.55-44.44-10.37-25.22-19.13-51.09-30.96-75.75-4.4-9.16-10.58-14-20.42-15.11-7.62-.86-8.55-.31-8.55,7.31-.02,49.35,0,98.69,0,148.04Zm-127.31-154.3v.04c-31.75,0-63.51,0-95.26,0-6.24,0-8.02,1.98-7.4,8,.23,2.2,.28,4.42,.28,6.64,.02,22.6,0,45.2,.01,67.81,0,6.21,1.13,7.28,7.33,7.13,7.62-.18,15.24-.58,22.85-.59,47.56-.06,95.13-.09,142.69,.02,9.8,.02,19.6,.28,29.41,.15,7.23-.09,8.17-.62,8.21-7.85,.07-12.34,0-24.68-.01-37.02,0-12.76,0-25.51,0-38.27,0-2.64-.25-5.13-3.75-5.34-3.73-.23-7.46-.67-11.19-.68-31.06-.06-62.12-.03-93.18-.03Zm-121.44,154.74c0-47.97,0-95.94,0-143.9,0-1.94-.02-3.88-.07-5.82-.09-3.42-1.92-5.02-5.29-5-2.77,.02-5.54,.04-8.32,.03-13.26-.04-21.78,7.05-24.63,20.11-1.83,8.38-3.92,16.71-6.12,25.01-5.65,21.28-11.57,42.48-17.09,63.79-3.75,14.47-7.31,29-11.63,43.31-2.08,6.87-5.32,8.94-12.49,9.05-1.39,.02-2.77-.03-4.16,0-5.87,.11-6.84,1.31-6.7,8.25,.12,5.79,1.24,6.84,6.84,6.76,5.68-.08,11.37-.23,17.04,.01,5.32,.22,7.75,2.47,8.76,7.72,.44,2.29,.57,4.68,.58,7.02,.05,12.34-.01,24.68,.03,37.02,.02,6.37-.47,12.84,.42,19.1,2.61,18.37,5.78,36.66,8.78,54.97,.93,5.71,2.82,7.27,8.65,7.28,12.2,.03,24.4,.02,36.6,.02,8.13,0,8.82-.69,8.82-8.73,0-48.66,0-97.32,0-145.98Zm47.87-175.11c1.7,2.16,3.48,1.64,5.06,1.79,8.84,.8,17.66-.42,26.53-.22,24.67,.57,49.36,.4,74.04,.06,10.09-.14,20.17-.29,30.25,.07,3.87,.14,7.76,.56,11.61-.25,.78-.16,1.78-.35,1.78-1.41,0-.8-.76-1.1-1.47-1.19-5.76-.72-11.36-2.68-17.25-2.45-4.79,.18-6.18-1.08-6.25-5.95-.07-4.85-.05-9.7-.05-14.56-.02-22.05,0-44.09-.1-66.14-.03-5.79-1.19-6.73-6.92-6.74-6.24,0-12.48-.12-18.72,0-3.87,.07-6.78-1.16-9.37-4.25-4.63-5.5-16.93-5.84-21.01-.55-2.7,3.49-6.02,4.71-10.05,4.76-6.65,.08-13.31,.07-19.96,.01-5.74-.05-6.95,1.03-6.95,6.61,0,20.66,.05,41.32,.05,61.98,0,5.96-.02,11.92-.12,17.88-.07,4-2.07,6.36-6.1,7.2-4.23,.89-8.47,1.5-12.79,1.27-4.08-.22-7.83,1.17-12.2,2.06Zm74.82,398.85c6.51,0,13.01,0,19.52,0,6.85,0,12.3-5.65,12.3-12.55,0-9.95,.08-19.91,.19-29.86,.07-6.79-.65-7.56-7.6-7.58-1.25,0-2.49,.03-3.74,.01-15.08-.25-30.16,.53-45.23-.41-4.24-.26-6.44,2.11-6.49,6.67-.13,10.65,.11,21.3-.57,31.94-.38,6.04,5.31,11.79,11.28,11.79,6.78,0,13.56,0,20.35,0Z"/><path class="cls-1" d="M263.82,576.81c65.17,0,130.33,.08,195.5-.06,15.06-.03,26.67-7.35,35.85-18.9,11.04-13.89,15.05-30.2,15.2-47.43,.31-36.32,.08-72.65,.03-108.98,0-2.62-.45-5.25-.54-7.87-.17-4.59,1.49-6.38,5.98-6.65,.14,0,.28,0,.42-.01,11.92-.47,12.03-.34,12.02,11.62-.02,36.74-.31,73.49,.1,110.23,.19,17.49-2.78,34.14-11.45,49.19-13.03,22.6-31.68,37.26-59.16,37.26-128.25,.03-256.51,0-384.76,0-17.77,0-33.29-5.24-46.2-18.15-12.55-12.55-20.09-27.34-24.07-44.53-2.84-12.26-2.19-24.51-2.24-36.79-.12-31.2,.04-62.39,.03-93.59,0-3.18-.38-6.36-.52-9.54-.18-3.96,1.36-5.7,5.3-5.72,14.3-.08,13.67-.38,13.62,12.69-.14,37.71,.01,75.43-.04,113.14-.02,16.95,4.74,32.29,15.2,45.65,9.6,12.27,21.91,18.61,37.97,18.54,63.92-.29,127.84-.12,191.76-.12v.03Z"/></g></g></svg>