<?xml version="1.0" encoding="UTF-8"?><svg id="Layer_2" xmlns="http://www.w3.org/2000/svg" viewBox="0 0 822.26 528.83"><defs><style>.cls-1{fill:#fff;}</style></defs><g id="Layer_1-2"><g><path class="cls-1" d="M822.2,358.04c0,43.99,.19,87.98-.12,131.96-.09,12.47-6.77,21.49-17.55,27.91-6.89,4.1-14.17,4.58-21.7,4.59-22.42,.04-44.83,0-67.25,0-40.27,.01-80.53-.16-120.8,.15-16.57,.13-28.51-6.48-36.15-21.2-1.79-3.45-2.42-6.93-2.42-10.7,.02-83.12,.05-166.24-.06-249.36,0-6.58,1.34-13.15,.12-19.75-.18-.96-.05-2.18,.4-3.03,2.43-4.53,3.84-9.64,7.29-13.56,6.88-7.8,15.59-12.22,26.02-12.24,64.77-.1,129.54-.03,194.3-.09,7.26,0,14.14,.98,20.41,4.94,10.38,6.56,17.39,15.28,17.42,28.08,.1,44.09,.04,88.18,.04,132.27h.03Zm-27.29-6.65h-.02c0-27.57,0-55.13,0-82.7,0-7.12,.04-14.25-.02-21.37-.04-4.81-2.03-6.45-6.84-5.95-2.05,.21-4.11,.36-6.17,.37-7.53,.06-15.07-.38-22.59-.41-37.39-.19-74.78-.08-112.17-.07-17.13,0-34.25,0-51.38-.01-5.72,0-7.96,2.03-7.88,7.82,.13,8.96-.16,17.92-.14,26.89,.19,59.15,.28,118.3-.35,177.45-.07,6.06,2.34,8.4,8.43,8.29,3.19-.06,6.35-.63,9.57-.62,25.4,.09,50.79,.09,76.19,.1,18.05,0,36.11-.03,54.16-.03,17.04,0,34.08-.07,51.12,.11,6.6,.07,8.09-1.05,8.09-7.66,0-34.07,0-68.14,0-102.21Zm-103.51,152.91c8.53-.3,16.33-3.02,23.27-8.02,3.86-2.78,4.48-7.92,1.39-11.43-2.39-2.71-5.23-5.34-8.64-6.35-13.67-4.06-27.27-5.25-40.41,2.22-3.85,2.19-6.07,4.98-6.09,9.56-.02,4.61,3,6.72,6.42,8.65,7.46,4.2,15.51,5.87,24.07,5.39Zm5.48-286.96c-.02-5.05-4.53-9.69-9.36-9.65-6.25,.05-10.28,3.77-10.31,9.53-.03,4,5.51,9.69,9.39,9.64,5.57-.06,10.31-4.45,10.29-9.52Z"/><path class="cls-1" d="M382.52,.05c81.31,0,162.62,0,243.93,.01,9.97,0,19.9,.89,28.99,5.25,9.95,4.78,17.84,11.74,23.14,21.85,4.91,9.38,5.85,19.26,5.89,29.38,.15,36.25,.12,72.49,.13,108.74,0,5.44-1.65,7.34-7.13,7.55-6.5,.25-13.02,.21-19.52,.09-3.85-.07-5.83-2.12-6.22-5.96-.09-.92-.07-1.86-.07-2.79,0-29.62-.02-59.24,.04-88.86,.01-7.11,.8-14.21,.06-21.33-.4-3.93-.68-7.96-2.65-11.36-3.43-5.93-9.14-9.01-15.77-9.53-6.26-.48-12.59,.05-18.89,.06-3.19,0-6.39-.24-9.58-.24-148.36,0-296.72-.04-445.09,.08-9.28,0-18.57-1.33-27.84-.08-6.23,.84-11.63,3.37-15.73,8.31-2.55,3.08-3.23,6.9-2.89,10.52,.61,6.43-.23,12.79-.23,19.18,.06,52.46-.08,104.93,.14,157.39,.02,5.66-.31,11.31-.07,16.97,.15,3.53-1.86,5.74-5.41,5.79-7.23,.1-14.46,.1-21.69-.08-4.2-.1-5.96-2.48-5.96-7.37,0-22.72,.01-45.44,.02-68.16,.01-42.55,.01-85.1,.06-127.64,.01-9.19,3.43-17.25,8.51-24.74,5.28-7.79,12.51-13.34,20.57-17.83,4.16-2.32,8.9-3.2,13.6-3.99C133.12-.45,143.47,.08,153.78,.07c76.25-.04,152.49-.02,228.74-.02Z"/><path class="cls-1" d="M.03,402.29c0-32.42-.07-64.83,.04-97.25,.04-10.38,4.51-18.9,12.98-24.75,4.18-2.88,9.42-4.32,14.7-4.06,7.55,.36,15.05-.64,22.59-.35,17.85,.68,35.71-.34,53.56-.08,5.56,.08,11.12,.58,16.66,1.15,7.18,.75,18.89,10.26,20.32,19.11,.76,4.66,1.72,9.15,1.38,14-.4,5.61,.43,11.29,.36,16.97-.26,20.41,.69,40.84-.36,61.25-.22,4.25,.42,8.45,.45,12.67,.09,9.89,.02,19.79-.1,29.67-.14,11.03,.64,22.06,.11,33.07-.62,12.98-.03,25.97-.5,38.94-.35,9.46-5.81,15.74-13.06,20.97-4.28,3.09-9,4.24-14.2,4.52-10.9,.6-21.8,.05-32.69,.28-5.61,.12-11.32,.1-16.96,.02-6.64-.1-13.37-.64-20.04,.2-2.46,.31-4.96,.29-7.41-.15-2.47-.44-4.94-.43-7.41-.12-7.62,.96-13.94-2.25-19.75-6.5C2.54,515.91,.05,507.26,.04,497.69c-.03-31.8-.01-63.6-.02-95.39Zm14.4-4.34h.01c0,4.85,0,9.7,0,14.56-.01,20.54-.03,41.09-.04,61.63,0,4.59,1.47,6.07,6.12,6.15,.62,0,1.24-.02,1.86-.02,16.5-.17,33.01-.4,49.51-.46,6.6-.03,13.22,.67,19.8,.39,5.89-.25,11.73-.39,17.61,.06,2.77,.21,5.59,.09,8.36-.15,5.12-.45,6.89-2.79,6.25-7.86-.17-1.33-.42-2.66-.43-4-.04-11.46-.05-22.92-.04-34.38,.04-37.68,.1-75.36,.13-113.04,0-3.76-1.48-5.31-5.23-5.28-2.57,.03-5.14,.49-7.71,.5-24.48,.06-48.96,.07-73.44,.06-4.85,0-9.72,.07-14.54-.32-6.14-.5-8.2,1.06-8.21,7.21-.02,24.98-.01,49.97-.01,74.95Zm55.28,91.83c-6.49-.72-12.2,2.27-17.71,5.55-3.81,2.27-4.55,8.25-1.36,11.4,3.28,3.25,6.88,6.13,11.75,6.99,9.23,1.62,17.28-.93,24.47-6.56,3.14-2.46,2.98-9.43-.6-11.5-5-2.91-9.88-6.63-16.55-5.86Zm-10.22-193.58c-1.64,.07-3.31,.01-4.92,.26-2.05,.31-3.36,1.56-3.45,3.73-.1,2.21,1.16,3.49,3.23,3.85,1.3,.22,2.67,.26,3.98,.12,6.16-.67,12.31-.63,18.46,.04,2.25,.25,4.54,.49,6.75-.15,1.9-.55,3.37-1.75,3.28-3.94-.08-2.09-1.25-3.45-3.35-3.84-1.01-.19-2.08-.52-3.04-.34-6.96,1.29-13.97-.85-20.93,.29Z"/><path class="cls-1" d="M344.47,389.92c61.25,0,122.5,.01,183.75-.01,3.7,0,7.37,.46,11.11,.11,4.87-.47,7.02,1.86,7.03,6.73,.01,6.92,0,13.83-.04,20.75-.03,4.44-2.54,6.62-6.89,6.17-1.95-.2-3.91-.33-5.87-.33-25.1,0-50.2,.04-75.3,.03-41.29,0-82.59-.06-123.88-.07-58.54,0-117.08,.03-175.61,.05-5.73,0-7.35-1.57-7.38-7.31-.03-5.98-.03-11.96,.03-17.93,.06-6.43,1.92-8.19,8.38-8.19,61.56,0,123.12,0,184.68,0Z"/><path class="cls-1" d="M462.33,523.8c-7.02-.09-14.05,.56-21.04,.42-17.42-.33-34.84-.33-52.27-.36-13.32-.02-26.65-.13-39.96,.03-10.72,.13-21.43-.21-32.16,.39-8.55,.48-17.11-.99-25.68-.45-2.37,.15-4.73,.33-7.1,.46-4.14,.23-6.43-1.76-6.76-5.9-.09-1.13-.12-2.28,0-3.4,.89-8.01,1.48-10.47,10.44-9.89,7.4,.48,14.85-.32,22.27,.52,3.8,.43,6-1.34,6.89-5.18,1.93-8.34,3.66-16.72,5.6-25.05,1.61-6.92,3.35-13.81,5.1-20.7,.79-3.11,2.99-5,6.09-4.6,4.16,.54,8.23-.11,12.34-.11,23.34-.04,46.68-.01,70.02-.01,3.39,0,6.74,.51,10.18,.19,2.94-.28,5.4,1.25,6.62,4.18,.55,1.33,1.07,2.69,1.42,4.08,3.01,12.11,5.97,24.23,8.98,36.34,1.24,4.99,4.32,7.02,9.64,6.49,8.02-.8,16.04-.05,24.04,.2,4.93,.16,6.98,2.82,6.62,7.74-.23,3.09-.45,6.12-.06,9.24,.42,3.33-1.82,5.26-6.04,5.37-5.06,.13-10.12,.03-15.18,.03Z"/><path class="cls-1" d="M689.34,496.54c-4.26,0-7.67,.07-11.08-.02-3.97-.1-7.21-2.9-7.31-6.18-.11-3.49,3.2-7.03,6.88-7.55,7.84-1.12,15.64-.66,23.42,.58,2.88,.46,5.5,3.3,5.73,6.1,.26,3.22-.91,5-4.36,6.21-4.62,1.62-9.43,.52-13.28,.87Z"/><path class="cls-1" d="M69.02,496.39c1.85,0,3.71-.08,5.55,.02,2.54,.14,3.94,1.62,4.18,4.11,.24,2.49-.49,4.69-3.16,5.26-4.11,.87-8.34,1.28-12.52,.85-3.11-.32-4.73-2.74-4.48-5.66,.25-2.92,1.85-4.38,5.17-4.58,1.74-.1,3.5-.02,5.24-.01Z"/></g></g></svg>