<?xml version="1.0" encoding="UTF-8"?><svg id="Layer_2" xmlns="http://www.w3.org/2000/svg" viewBox="0 0 820.61 429.34"><defs><style>.cls-1{fill:#FFF;}</style></defs><g id="Layer_9"><g><g><path class="cls-1" d="M.23,243.5c-.03-68.24,26.11-111.2,77.82-129.03,23.67-8.17,47.65-9.19,70.08,1.02,26.61,12.1,50.96,9.77,77.7-.05,44.01-16.17,88.93-2.13,119.34,33.13,10.36,12.01,13.76,19.66-5.66,26.74-33.53,12.22-47.95,36.12-46.31,70.67,1.48,31.28,19.72,54.47,52.92,63.86,14.98,4.24,19.56,9.82,13.41,24.99-8.45,20.85-17.91,40.91-32.01,58.57-27.44,34.37-66,45.17-106.31,27.73-23.56-10.19-45.5-10.51-69.09-.43-41.45,17.72-80.6,7.29-107.84-28.31C10.68,348.48-1.92,298.07,.23,243.5Zm114.58-110.68c-40.73-.72-79.88,29.45-88.99,71.14-12.47,57.04,.69,110.97,29.08,160.84,23.04,40.48,50.44,48.77,94.03,31.06,24.11-9.8,47.74-10.38,71.95-1.27,51.08,19.24,80.16,7.11,104.84-42.09,6.71-13.37,5.08-20.04-8.42-28.16-61.28-36.86-67.64-111.86-12.64-156.96,16.99-13.94,7.89-17.84-3.78-24.11-28.1-15.08-56.53-11.48-84.27,.26-20.59,8.71-40.1,8.89-60.61,.1-13.68-5.86-28.22-9.72-41.17-10.81Z"/><path class="cls-1" d="M256.64,.03c26.42-.31,27.84,1.31,24.59,27.93-5.6,45.91-38.13,75.57-83.42,77.11-15.71,.53-23.04-4.13-22.86-21.24C175.49,34.21,207.61,.61,256.64,.03Zm-14.74,25.34c-15.65,.53-39.68,25.09-40.83,42.93-.49,7.59,1.74,10.54,10.03,9.79,19.15-1.74,39.38-19.92,43.25-39.18,1.91-9.49-.63-14.29-12.45-13.54Z"/></g><path class="cls-1" d="M466.69,60h167.78V227.7h-167.78V60Zm186.14,0h167.78V227.7h-167.78V60Zm-186.14,186.14h167.78v167.78h-167.78V246.14Zm186.14,0h167.78v167.78h-167.78"/></g></g></svg>